<?xml version="1.0" encoding="UTF-8"?>
<svg width="1200pt" height="1200pt" version="1.1" viewBox="0 0 1200 1200" xmlns="http://www.w3.org/2000/svg">
 <path style="fill:#000000" transform="scale(15)" d="m40.289 41.051s-0.004948-0.51875 0.21302-0.65547c0.44792-0.30052 0.9612-0.46979 1.4802-0.59531 0.64453-0.1474 1.1034-0.66094 1.6932-0.92838 0.78646-0.36042 1.6385-0.58984 2.3758-1.0542-0.96667-0.0875-1.9826 0.010938-2.8784-0.42057-0.47526-0.21302-0.9612-0.52422-1.1578-1.0323-0.10912-0.45885 0.032812-0.94479 0.17474-1.3818 0.26224-0.054688 0.52969-0.10912 0.7974-0.13099 0.66641-0.076562 1.3219 0.19115 1.988 0.13099 0.70469-0.1638 1.4365-0.18568 2.163-0.18568 0.18021-0.20755 0.28958-0.52422 0.54609-0.64453 0.39323 0 0.77552 0.18021 1.1307 0.33854 0.49167 0.2513 1.0542 0.30052 1.5893 0.36589 0.93385 0.049218 1.9281-0.15286 2.8073 0.26771 1.3393 0.89818 2.1021 1.0961 3.4026 2.4742 0.42057 0.21302 0.91224 0.19115 1.3708 0.27318 0.93932 0.1474 1.9336 0.032812 2.8292 0.3987 0.9776 0.51875 1.4365 1.5784 1.8297 2.5508 0.12552 0.33307 0.42057 0.55703 0.60078 0.86302 0.29505 0.46979 0.44792 1.0159 0.77005 1.4747 0.29505 0.54609 0.63906 1.0651 0.99401 1.5729 0.2349 0.27318 0.46979 0.55703 0.62812 0.8849 0.17474 0.36042 0.57344 0.54062 0.74818 0.89583 0.15833 0.28958 0.3987 0.52422 0.57344 0.80286 0.29505 0.43698 0.55703 0.92838 1.0159 1.2234 0.26771 0.2513 0.61719 0.42057 0.98854 0.3987 0.80833-0.04375 1.5893 0.27318 2.3922 0.19662 1.2398-0.14193 2.4852-0.098177 3.725-0.21302 0.75911-0.098177 2.3646-0.20781 3.1237-0.33906 2.0143 0.36562 1.1333 9.588 0.52344 11.597-2.9102 0.30651-7.1505 1.7232-8.7375-0.28333-0.19115-0.34948-0.010937-1.8917 0.0875-2.2414 0.97109 0.46849-2.8323-0.69479-3.2443-0.7974-1.0049 0.038281-1.9661-0.35495-2.9549-0.46432-0.22943 0.004948-0.4151-0.13099-0.60078-0.2349-0.62083-0.058594-1.7542-0.014584-2.081-0.021875-1.0487-0.060156-2.0318-0.48073-2.9823-0.90677-0.78099-0.48073-1.5674-0.9612-2.3104-1.5076-0.3987-0.31146-0.7263-0.71016-1.1523-0.98307-0.77005-0.52969-1.4365-1.2289-2.294-1.6276-0.82474-0.39323-1.7042-0.67188-2.5508-1.0104-1.0487-0.48073-2.0263-1.0979-3.075-1.5674-0.63906-0.37135-1.3763-0.66641-1.8461-1.2617-0.45885-0.55156-0.2513-1.3328 0-1.9445-0.54609-0.37135-1.087-0.77005-1.551-1.2508-0.16927-0.18568-0.36588-0.33854-0.57891-0.46432-0.95573-0.58984-1.9117-1.1852-2.862-1.775-0.60625-0.38776-1.8242-1.1253-1.8242-1.1253l-36.932-22.888-0.17708-0.35886m50.84 23.809c-0.29505 0.7974-0.98307 1.431-1.775 1.7151-0.28412 0.67734-0.75912 1.2344-1.2617 1.7586 0.90677 0.2513 1.7534 0.68281 2.6271 1.0378 0.76458 0.30052 1.3438 0.92318 2.0974 1.2453 0.79193 0.24036 1.5839 0.48073 2.4031 0.62266 0.28412-0.49714 0.58984-0.98854 0.78099-1.5349 0.14193-0.43698 0.42604-0.80286 0.65-1.1961-0.04375-0.4151-0.42604-0.69922-0.69922-0.9776-0.55156-0.54062-1.3708-0.64453-1.9281-1.1852-0.2513-0.18568-0.34401-0.4862-0.47526-0.75365-0.80286-0.21302-1.8297-0.038281-2.4195-0.73177m-5.3909 0.18568c-0.2513 0.038281-0.53516-0.065625-0.76458 0.081771-0.85208 0.57344-1.8789 0.77552-2.8729 0.96667 0.31667 0.22396 0.61719 0.55156 1.0323 0.5625 0.62266 0.12005 1.1688 0.48073 1.7641 0.69922 0.62812-0.80286 1.1034-1.726 1.8516-2.4359-0.33854 0.049219-0.67188 0.12552-1.0104 0.12552z" stroke="#000" stroke-width=".0051205"/>
</svg>
